<?xml version="1.0" encoding="utf-8" standalone="no"?>
<!DOCTYPE svg PUBLIC "-//W3C//DTD SVG 1.1//EN"
  "http://www.w3.org/Graphics/SVG/1.1/DTD/svg11.dtd">
<svg xmlns:xlink="http://www.w3.org/1999/xlink" width="480.4985pt" height="283.270594pt" viewBox="0 0 480.4985 283.270594" xmlns="http://www.w3.org/2000/svg" version="1.1">
 <metadata>
  <rdf:RDF xmlns:dc="http://purl.org/dc/elements/1.1/" xmlns:cc="http://creativecommons.org/ns#" xmlns:rdf="http://www.w3.org/1999/02/22-rdf-syntax-ns#">
   <cc:Work>
    <dc:type rdf:resource="http://purl.org/dc/dcmitype/StillImage"/>
    <dc:date>2026-04-25T19:47:23.321957</dc:date>
    <dc:format>image/svg+xml</dc:format>
    <dc:creator>
     <cc:Agent>
      <dc:title>Matplotlib v3.9.4, https://matplotlib.org/</dc:title>
     </cc:Agent>
    </dc:creator>
   </cc:Work>
  </rdf:RDF>
 </metadata>
 <defs>
  <style type="text/css">*{stroke-linejoin: round; stroke-linecap: butt}</style>
 </defs>
 <g id="figure_1">
  <g id="patch_1">
   <path d="M 0 283.270594 
L 480.4985 283.270594 
L 480.4985 0 
L 0 0 
z
" style="fill: #ffffff"/>
  </g>
  <g id="axes_1">
   <g id="patch_2">
    <path d="M 22.52125 194.198594 
L 457.97725 194.198594 
L 457.97725 14.998594 
L 22.52125 14.998594 
z
" style="fill: #ffffff"/>
   </g>
   <g id="matplotlib.axis_1">
    <g id="xtick_1">
     <g id="line2d_1">
      <defs>
       <path id="maac0d303aa" d="M 0 0 
L 0 3.5 
" style="stroke: #000000; stroke-width: 0.8"/>
      </defs>
      <g>
       <use xlink:href="#maac0d303aa" x="35.328779" y="194.198594" style="stroke: #000000; stroke-width: 0.8"/>
      </g>
     </g>
     <g id="text_1">
      <text style="font: 7px 'DejaVu Sans'; text-anchor: middle" x="35.328779" y="205.0175" transform="rotate(-0 35.328779 205.0175)">2</text>
     </g>
    </g>
    <g id="xtick_2">
     <g id="line2d_2">
      <g>
       <use xlink:href="#maac0d303aa" x="52.405485" y="194.198594" style="stroke: #000000; stroke-width: 0.8"/>
      </g>
     </g>
     <g id="text_2">
      <text style="font: 7px 'DejaVu Sans'; text-anchor: middle" x="52.405485" y="205.0175" transform="rotate(-0 52.405485 205.0175)">3</text>
     </g>
    </g>
    <g id="xtick_3">
     <g id="line2d_3">
      <g>
       <use xlink:href="#maac0d303aa" x="69.482191" y="194.198594" style="stroke: #000000; stroke-width: 0.8"/>
      </g>
     </g>
     <g id="text_3">
      <text style="font: 7px 'DejaVu Sans'; text-anchor: middle" x="69.482191" y="205.0175" transform="rotate(-0 69.482191 205.0175)">4</text>
     </g>
    </g>
    <g id="xtick_4">
     <g id="line2d_4">
      <g>
       <use xlink:href="#maac0d303aa" x="86.558897" y="194.198594" style="stroke: #000000; stroke-width: 0.8"/>
      </g>
     </g>
     <g id="text_4">
      <text style="font: 7px 'DejaVu Sans'; text-anchor: middle" x="86.558897" y="205.0175" transform="rotate(-0 86.558897 205.0175)">5</text>
     </g>
    </g>
    <g id="xtick_5">
     <g id="line2d_5">
      <g>
       <use xlink:href="#maac0d303aa" x="103.635603" y="194.198594" style="stroke: #000000; stroke-width: 0.8"/>
      </g>
     </g>
     <g id="text_5">
      <text style="font: 7px 'DejaVu Sans'; text-anchor: middle" x="103.635603" y="205.0175" transform="rotate(-0 103.635603 205.0175)">6</text>
     </g>
    </g>
    <g id="xtick_6">
     <g id="line2d_6">
      <g>
       <use xlink:href="#maac0d303aa" x="120.712309" y="194.198594" style="stroke: #000000; stroke-width: 0.8"/>
      </g>
     </g>
     <g id="text_6">
      <text style="font: 7px 'DejaVu Sans'; text-anchor: middle" x="120.712309" y="205.0175" transform="rotate(-0 120.712309 205.0175)">7</text>
     </g>
    </g>
    <g id="xtick_7">
     <g id="line2d_7">
      <g>
       <use xlink:href="#maac0d303aa" x="137.789015" y="194.198594" style="stroke: #000000; stroke-width: 0.8"/>
      </g>
     </g>
     <g id="text_7">
      <text style="font: 7px 'DejaVu Sans'; text-anchor: middle" x="137.789015" y="205.0175" transform="rotate(-0 137.789015 205.0175)">8</text>
     </g>
    </g>
    <g id="xtick_8">
     <g id="line2d_8">
      <g>
       <use xlink:href="#maac0d303aa" x="154.865721" y="194.198594" style="stroke: #000000; stroke-width: 0.8"/>
      </g>
     </g>
     <g id="text_8">
      <text style="font: 7px 'DejaVu Sans'; text-anchor: middle" x="154.865721" y="205.0175" transform="rotate(-0 154.865721 205.0175)">9</text>
     </g>
    </g>
    <g id="xtick_9">
     <g id="line2d_9">
      <g>
       <use xlink:href="#maac0d303aa" x="171.942426" y="194.198594" style="stroke: #000000; stroke-width: 0.8"/>
      </g>
     </g>
     <g id="text_9">
      <text style="font: 7px 'DejaVu Sans'; text-anchor: middle" x="171.942426" y="205.0175" transform="rotate(-0 171.942426 205.0175)">10</text>
     </g>
    </g>
    <g id="xtick_10">
     <g id="line2d_10">
      <g>
       <use xlink:href="#maac0d303aa" x="189.019132" y="194.198594" style="stroke: #000000; stroke-width: 0.8"/>
      </g>
     </g>
     <g id="text_10">
      <text style="font: 7px 'DejaVu Sans'; text-anchor: middle" x="189.019132" y="205.0175" transform="rotate(-0 189.019132 205.0175)">11</text>
     </g>
    </g>
    <g id="xtick_11">
     <g id="line2d_11">
      <g>
       <use xlink:href="#maac0d303aa" x="206.095838" y="194.198594" style="stroke: #000000; stroke-width: 0.8"/>
      </g>
     </g>
     <g id="text_11">
      <text style="font: 7px 'DejaVu Sans'; text-anchor: middle" x="206.095838" y="205.0175" transform="rotate(-0 206.095838 205.0175)">12</text>
     </g>
    </g>
    <g id="xtick_12">
     <g id="line2d_12">
      <g>
       <use xlink:href="#maac0d303aa" x="223.172544" y="194.198594" style="stroke: #000000; stroke-width: 0.8"/>
      </g>
     </g>
     <g id="text_12">
      <text style="font: 7px 'DejaVu Sans'; text-anchor: middle" x="223.172544" y="205.0175" transform="rotate(-0 223.172544 205.0175)">13</text>
     </g>
    </g>
    <g id="xtick_13">
     <g id="line2d_13">
      <g>
       <use xlink:href="#maac0d303aa" x="240.24925" y="194.198594" style="stroke: #000000; stroke-width: 0.8"/>
      </g>
     </g>
     <g id="text_13">
      <text style="font: 7px 'DejaVu Sans'; text-anchor: middle" x="240.24925" y="205.0175" transform="rotate(-0 240.24925 205.0175)">14</text>
     </g>
    </g>
    <g id="xtick_14">
     <g id="line2d_14">
      <g>
       <use xlink:href="#maac0d303aa" x="257.325956" y="194.198594" style="stroke: #000000; stroke-width: 0.8"/>
      </g>
     </g>
     <g id="text_14">
      <text style="font: 7px 'DejaVu Sans'; text-anchor: middle" x="257.325956" y="205.0175" transform="rotate(-0 257.325956 205.0175)">15</text>
     </g>
    </g>
    <g id="xtick_15">
     <g id="line2d_15">
      <g>
       <use xlink:href="#maac0d303aa" x="274.402662" y="194.198594" style="stroke: #000000; stroke-width: 0.8"/>
      </g>
     </g>
     <g id="text_15">
      <text style="font: 7px 'DejaVu Sans'; text-anchor: middle" x="274.402662" y="205.0175" transform="rotate(-0 274.402662 205.0175)">17</text>
     </g>
    </g>
    <g id="xtick_16">
     <g id="line2d_16">
      <g>
       <use xlink:href="#maac0d303aa" x="291.479368" y="194.198594" style="stroke: #000000; stroke-width: 0.8"/>
      </g>
     </g>
     <g id="text_16">
      <text style="font: 7px 'DejaVu Sans'; text-anchor: middle" x="291.479368" y="205.0175" transform="rotate(-0 291.479368 205.0175)">18</text>
     </g>
    </g>
    <g id="xtick_17">
     <g id="line2d_17">
      <g>
       <use xlink:href="#maac0d303aa" x="308.556074" y="194.198594" style="stroke: #000000; stroke-width: 0.8"/>
      </g>
     </g>
     <g id="text_17">
      <text style="font: 7px 'DejaVu Sans'; text-anchor: middle" x="308.556074" y="205.0175" transform="rotate(-0 308.556074 205.0175)">19</text>
     </g>
    </g>
    <g id="xtick_18">
     <g id="line2d_18">
      <g>
       <use xlink:href="#maac0d303aa" x="325.632779" y="194.198594" style="stroke: #000000; stroke-width: 0.8"/>
      </g>
     </g>
     <g id="text_18">
      <text style="font: 7px 'DejaVu Sans'; text-anchor: middle" x="325.632779" y="205.0175" transform="rotate(-0 325.632779 205.0175)">20</text>
     </g>
    </g>
    <g id="xtick_19">
     <g id="line2d_19">
      <g>
       <use xlink:href="#maac0d303aa" x="342.709485" y="194.198594" style="stroke: #000000; stroke-width: 0.8"/>
      </g>
     </g>
     <g id="text_19">
      <text style="font: 7px 'DejaVu Sans'; text-anchor: middle" x="342.709485" y="205.0175" transform="rotate(-0 342.709485 205.0175)">21</text>
     </g>
    </g>
    <g id="xtick_20">
     <g id="line2d_20">
      <g>
       <use xlink:href="#maac0d303aa" x="359.786191" y="194.198594" style="stroke: #000000; stroke-width: 0.8"/>
      </g>
     </g>
     <g id="text_20">
      <text style="font: 7px 'DejaVu Sans'; text-anchor: middle" x="359.786191" y="205.0175" transform="rotate(-0 359.786191 205.0175)">22</text>
     </g>
    </g>
    <g id="xtick_21">
     <g id="line2d_21">
      <g>
       <use xlink:href="#maac0d303aa" x="376.862897" y="194.198594" style="stroke: #000000; stroke-width: 0.8"/>
      </g>
     </g>
     <g id="text_21">
      <text style="font: 7px 'DejaVu Sans'; text-anchor: middle" x="376.862897" y="205.0175" transform="rotate(-0 376.862897 205.0175)">26</text>
     </g>
    </g>
    <g id="xtick_22">
     <g id="line2d_22">
      <g>
       <use xlink:href="#maac0d303aa" x="393.939603" y="194.198594" style="stroke: #000000; stroke-width: 0.8"/>
      </g>
     </g>
     <g id="text_22">
      <text style="font: 7px 'DejaVu Sans'; text-anchor: middle" x="393.939603" y="205.0175" transform="rotate(-0 393.939603 205.0175)">27</text>
     </g>
    </g>
    <g id="xtick_23">
     <g id="line2d_23">
      <g>
       <use xlink:href="#maac0d303aa" x="411.016309" y="194.198594" style="stroke: #000000; stroke-width: 0.8"/>
      </g>
     </g>
     <g id="text_23">
      <text style="font: 7px 'DejaVu Sans'; text-anchor: middle" x="411.016309" y="205.0175" transform="rotate(-0 411.016309 205.0175)">30</text>
     </g>
    </g>
    <g id="xtick_24">
     <g id="line2d_24">
      <g>
       <use xlink:href="#maac0d303aa" x="428.093015" y="194.198594" style="stroke: #000000; stroke-width: 0.8"/>
      </g>
     </g>
     <g id="text_24">
      <text style="font: 7px 'DejaVu Sans'; text-anchor: middle" x="428.093015" y="205.0175" transform="rotate(-0 428.093015 205.0175)">32</text>
     </g>
    </g>
    <g id="xtick_25">
     <g id="line2d_25">
      <g>
       <use xlink:href="#maac0d303aa" x="445.169721" y="194.198594" style="stroke: #000000; stroke-width: 0.8"/>
      </g>
     </g>
     <g id="text_25">
      <text style="font: 7px 'DejaVu Sans'; text-anchor: middle" x="445.169721" y="205.0175" transform="rotate(-0 445.169721 205.0175)">41</text>
     </g>
    </g>
    <g id="text_26">
     <text style="font: 8px 'DejaVu Sans'; text-anchor: middle" x="240.24925" y="216.552031" transform="rotate(-0 240.24925 216.552031)">Multiplicity N</text>
    </g>
   </g>
   <g id="matplotlib.axis_2">
    <g id="ytick_1">
     <g id="line2d_26">
      <path d="M 22.52125 186.053139 
L 457.97725 186.053139 
" clip-path="url(#pf86d0b67f2)" style="fill: none; stroke: #d8d8d8; stroke-width: 0.45; stroke-linecap: square"/>
     </g>
     <g id="line2d_27">
      <defs>
       <path id="m8f20fa84d6" d="M 0 0 
L -3.5 0 
" style="stroke: #d55e00; stroke-width: 0.8"/>
      </defs>
      <g>
       <use xlink:href="#m8f20fa84d6" x="22.52125" y="186.053139" style="fill: #d55e00; stroke: #d55e00; stroke-width: 0.8"/>
      </g>
     </g>
     <g id="text_27">
      <text style="fill: #d55e00; font: 7px 'DejaVu Sans'; text-anchor: end" x="15.52125" y="188.712592" transform="rotate(-0 15.52125 188.712592)">1</text>
     </g>
    </g>
    <g id="ytick_2">
     <g id="line2d_28">
      <path d="M 22.52125 136.219302 
L 457.97725 136.219302 
" clip-path="url(#pf86d0b67f2)" style="fill: none; stroke: #d8d8d8; stroke-width: 0.45; stroke-linecap: square"/>
     </g>
     <g id="line2d_29">
      <g>
       <use xlink:href="#m8f20fa84d6" x="22.52125" y="136.219302" style="fill: #d55e00; stroke: #d55e00; stroke-width: 0.8"/>
      </g>
     </g>
     <g id="text_28">
      <text style="fill: #d55e00; font: 7px 'DejaVu Sans'; text-anchor: end" x="15.52125" y="138.878755" transform="rotate(-0 15.52125 138.878755)">10</text>
     </g>
    </g>
    <g id="ytick_3">
     <g id="line2d_30">
      <path d="M 22.52125 86.385465 
L 457.97725 86.385465 
" clip-path="url(#pf86d0b67f2)" style="fill: none; stroke: #d8d8d8; stroke-width: 0.45; stroke-linecap: square"/>
     </g>
     <g id="line2d_31">
      <g>
       <use xlink:href="#m8f20fa84d6" x="22.52125" y="86.385465" style="fill: #d55e00; stroke: #d55e00; stroke-width: 0.8"/>
      </g>
     </g>
     <g id="text_29">
      <text style="fill: #d55e00; font: 7px 'DejaVu Sans'; text-anchor: end" x="15.52125" y="89.044918" transform="rotate(-0 15.52125 89.044918)">100</text>
     </g>
    </g>
    <g id="ytick_4">
     <g id="line2d_32">
      <path d="M 22.52125 36.551628 
L 457.97725 36.551628 
" clip-path="url(#pf86d0b67f2)" style="fill: none; stroke: #d8d8d8; stroke-width: 0.45; stroke-linecap: square"/>
     </g>
     <g id="line2d_33">
      <g>
       <use xlink:href="#m8f20fa84d6" x="22.52125" y="36.551628" style="fill: #d55e00; stroke: #d55e00; stroke-width: 0.8"/>
      </g>
     </g>
     <g id="text_30">
      <text style="fill: #d55e00; font: 7px 'DejaVu Sans'; text-anchor: end" x="15.52125" y="39.211081" transform="rotate(-0 15.52125 39.211081)">1k</text>
     </g>
    </g>
    <g id="ytick_5">
     <g id="line2d_34">
      <defs>
       <path id="m789111617f" d="M 0 0 
L -2 0 
" style="stroke: #000000; stroke-width: 0.6"/>
      </defs>
      <g>
       <use xlink:href="#m789111617f" x="22.52125" y="193.772498" style="stroke: #000000; stroke-width: 0.6"/>
      </g>
     </g>
    </g>
    <g id="ytick_6">
     <g id="line2d_35">
      <g>
       <use xlink:href="#m789111617f" x="22.52125" y="190.882537" style="stroke: #000000; stroke-width: 0.6"/>
      </g>
     </g>
    </g>
    <g id="ytick_7">
     <g id="line2d_36">
      <g>
       <use xlink:href="#m789111617f" x="22.52125" y="188.333411" style="stroke: #000000; stroke-width: 0.6"/>
      </g>
     </g>
    </g>
    <g id="ytick_8">
     <g id="line2d_37">
      <g>
       <use xlink:href="#m789111617f" x="22.52125" y="171.051659" style="stroke: #000000; stroke-width: 0.6"/>
      </g>
     </g>
    </g>
    <g id="ytick_9">
     <g id="line2d_38">
      <g>
       <use xlink:href="#m789111617f" x="22.52125" y="162.276356" style="stroke: #000000; stroke-width: 0.6"/>
      </g>
     </g>
    </g>
    <g id="ytick_10">
     <g id="line2d_39">
      <g>
       <use xlink:href="#m789111617f" x="22.52125" y="156.05018" style="stroke: #000000; stroke-width: 0.6"/>
      </g>
     </g>
    </g>
    <g id="ytick_11">
     <g id="line2d_40">
      <g>
       <use xlink:href="#m789111617f" x="22.52125" y="151.220782" style="stroke: #000000; stroke-width: 0.6"/>
      </g>
     </g>
    </g>
    <g id="ytick_12">
     <g id="line2d_41">
      <g>
       <use xlink:href="#m789111617f" x="22.52125" y="147.274877" style="stroke: #000000; stroke-width: 0.6"/>
      </g>
     </g>
    </g>
    <g id="ytick_13">
     <g id="line2d_42">
      <g>
       <use xlink:href="#m789111617f" x="22.52125" y="143.938661" style="stroke: #000000; stroke-width: 0.6"/>
      </g>
     </g>
    </g>
    <g id="ytick_14">
     <g id="line2d_43">
      <g>
       <use xlink:href="#m789111617f" x="22.52125" y="141.0487" style="stroke: #000000; stroke-width: 0.6"/>
      </g>
     </g>
    </g>
    <g id="ytick_15">
     <g id="line2d_44">
      <g>
       <use xlink:href="#m789111617f" x="22.52125" y="138.499574" style="stroke: #000000; stroke-width: 0.6"/>
      </g>
     </g>
    </g>
    <g id="ytick_16">
     <g id="line2d_45">
      <g>
       <use xlink:href="#m789111617f" x="22.52125" y="121.217823" style="stroke: #000000; stroke-width: 0.6"/>
      </g>
     </g>
    </g>
    <g id="ytick_17">
     <g id="line2d_46">
      <g>
       <use xlink:href="#m789111617f" x="22.52125" y="112.442519" style="stroke: #000000; stroke-width: 0.6"/>
      </g>
     </g>
    </g>
    <g id="ytick_18">
     <g id="line2d_47">
      <g>
       <use xlink:href="#m789111617f" x="22.52125" y="106.216343" style="stroke: #000000; stroke-width: 0.6"/>
      </g>
     </g>
    </g>
    <g id="ytick_19">
     <g id="line2d_48">
      <g>
       <use xlink:href="#m789111617f" x="22.52125" y="101.386945" style="stroke: #000000; stroke-width: 0.6"/>
      </g>
     </g>
    </g>
    <g id="ytick_20">
     <g id="line2d_49">
      <g>
       <use xlink:href="#m789111617f" x="22.52125" y="97.44104" style="stroke: #000000; stroke-width: 0.6"/>
      </g>
     </g>
    </g>
    <g id="ytick_21">
     <g id="line2d_50">
      <g>
       <use xlink:href="#m789111617f" x="22.52125" y="94.104824" style="stroke: #000000; stroke-width: 0.6"/>
      </g>
     </g>
    </g>
    <g id="ytick_22">
     <g id="line2d_51">
      <g>
       <use xlink:href="#m789111617f" x="22.52125" y="91.214863" style="stroke: #000000; stroke-width: 0.6"/>
      </g>
     </g>
    </g>
    <g id="ytick_23">
     <g id="line2d_52">
      <g>
       <use xlink:href="#m789111617f" x="22.52125" y="88.665737" style="stroke: #000000; stroke-width: 0.6"/>
      </g>
     </g>
    </g>
    <g id="ytick_24">
     <g id="line2d_53">
      <g>
       <use xlink:href="#m789111617f" x="22.52125" y="71.383986" style="stroke: #000000; stroke-width: 0.6"/>
      </g>
     </g>
    </g>
    <g id="ytick_25">
     <g id="line2d_54">
      <g>
       <use xlink:href="#m789111617f" x="22.52125" y="62.608682" style="stroke: #000000; stroke-width: 0.6"/>
      </g>
     </g>
    </g>
    <g id="ytick_26">
     <g id="line2d_55">
      <g>
       <use xlink:href="#m789111617f" x="22.52125" y="56.382506" style="stroke: #000000; stroke-width: 0.6"/>
      </g>
     </g>
    </g>
    <g id="ytick_27">
     <g id="line2d_56">
      <g>
       <use xlink:href="#m789111617f" x="22.52125" y="51.553108" style="stroke: #000000; stroke-width: 0.6"/>
      </g>
     </g>
    </g>
    <g id="ytick_28">
     <g id="line2d_57">
      <g>
       <use xlink:href="#m789111617f" x="22.52125" y="47.607203" style="stroke: #000000; stroke-width: 0.6"/>
      </g>
     </g>
    </g>
    <g id="ytick_29">
     <g id="line2d_58">
      <g>
       <use xlink:href="#m789111617f" x="22.52125" y="44.270987" style="stroke: #000000; stroke-width: 0.6"/>
      </g>
     </g>
    </g>
    <g id="ytick_30">
     <g id="line2d_59">
      <g>
       <use xlink:href="#m789111617f" x="22.52125" y="41.381026" style="stroke: #000000; stroke-width: 0.6"/>
      </g>
     </g>
    </g>
    <g id="ytick_31">
     <g id="line2d_60">
      <g>
       <use xlink:href="#m789111617f" x="22.52125" y="38.8319" style="stroke: #000000; stroke-width: 0.6"/>
      </g>
     </g>
    </g>
    <g id="ytick_32">
     <g id="line2d_61">
      <g>
       <use xlink:href="#m789111617f" x="22.52125" y="21.550149" style="stroke: #000000; stroke-width: 0.6"/>
      </g>
     </g>
    </g>
   </g>
   <g id="patch_3">
    <path d="M 29.181165 50019.890099 
L 41.476394 50019.890099 
L 41.476394 23.144048 
L 29.181165 23.144048 
z
" clip-path="url(#pf86d0b67f2)" style="fill: #d55e00; stroke: #6b2d00; stroke-width: 0.45; stroke-linejoin: miter"/>
   </g>
   <g id="patch_4">
    <path d="M 46.257871 50019.890099 
L 58.553099 50019.890099 
L 58.553099 59.83627 
L 46.257871 59.83627 
z
" clip-path="url(#pf86d0b67f2)" style="fill: #d55e00; stroke: #6b2d00; stroke-width: 0.45; stroke-linejoin: miter"/>
   </g>
   <g id="patch_5">
    <path d="M 63.334577 50019.890099 
L 75.629805 50019.890099 
L 75.629805 78.343879 
L 63.334577 78.343879 
z
" clip-path="url(#pf86d0b67f2)" style="fill: #d55e00; stroke: #6b2d00; stroke-width: 0.45; stroke-linejoin: miter"/>
   </g>
   <g id="patch_6">
    <path d="M 80.411283 50019.890099 
L 92.706511 50019.890099 
L 92.706511 88.665737 
L 80.411283 88.665737 
z
" clip-path="url(#pf86d0b67f2)" style="fill: #d55e00; stroke: #6b2d00; stroke-width: 0.45; stroke-linejoin: miter"/>
   </g>
   <g id="patch_7">
    <path d="M 97.487989 50019.890099 
L 109.783217 50019.890099 
L 109.783217 96.044261 
L 97.487989 96.044261 
z
" clip-path="url(#pf86d0b67f2)" style="fill: #d55e00; stroke: #6b2d00; stroke-width: 0.45; stroke-linejoin: miter"/>
   </g>
   <g id="patch_8">
    <path d="M 114.564695 50019.890099 
L 126.859923 50019.890099 
L 126.859923 102.270437 
L 114.564695 102.270437 
z
" clip-path="url(#pf86d0b67f2)" style="fill: #d55e00; stroke: #6b2d00; stroke-width: 0.45; stroke-linejoin: miter"/>
   </g>
   <g id="patch_9">
    <path d="M 131.641401 50019.890099 
L 143.936629 50019.890099 
L 143.936629 103.667216 
L 131.641401 103.667216 
z
" clip-path="url(#pf86d0b67f2)" style="fill: #d55e00; stroke: #6b2d00; stroke-width: 0.45; stroke-linejoin: miter"/>
   </g>
   <g id="patch_10">
    <path d="M 148.718106 50019.890099 
L 161.013335 50019.890099 
L 161.013335 115.539588 
L 148.718106 115.539588 
z
" clip-path="url(#pf86d0b67f2)" style="fill: #d55e00; stroke: #6b2d00; stroke-width: 0.45; stroke-linejoin: miter"/>
   </g>
   <g id="patch_11">
    <path d="M 165.794812 50019.890099 
L 178.090041 50019.890099 
L 178.090041 123.498094 
L 165.794812 123.498094 
z
" clip-path="url(#pf86d0b67f2)" style="fill: #d55e00; stroke: #6b2d00; stroke-width: 0.45; stroke-linejoin: miter"/>
   </g>
   <g id="patch_12">
    <path d="M 182.871518 50019.890099 
L 195.166746 50019.890099 
L 195.166746 124.735148 
L 182.871518 124.735148 
z
" clip-path="url(#pf86d0b67f2)" style="fill: #d55e00; stroke: #6b2d00; stroke-width: 0.45; stroke-linejoin: miter"/>
   </g>
   <g id="patch_13">
    <path d="M 199.948224 50019.890099 
L 212.243452 50019.890099 
L 212.243452 134.156546 
L 199.948224 134.156546 
z
" clip-path="url(#pf86d0b67f2)" style="fill: #d55e00; stroke: #6b2d00; stroke-width: 0.45; stroke-linejoin: miter"/>
   </g>
   <g id="patch_14">
    <path d="M 217.02493 50019.890099 
L 229.320158 50019.890099 
L 229.320158 127.443999 
L 217.02493 127.443999 
z
" clip-path="url(#pf86d0b67f2)" style="fill: #d55e00; stroke: #6b2d00; stroke-width: 0.45; stroke-linejoin: miter"/>
   </g>
   <g id="patch_15">
    <path d="M 234.101636 50019.890099 
L 246.396864 50019.890099 
L 246.396864 147.274877 
L 234.101636 147.274877 
z
" clip-path="url(#pf86d0b67f2)" style="fill: #d55e00; stroke: #6b2d00; stroke-width: 0.45; stroke-linejoin: miter"/>
   </g>
   <g id="patch_16">
    <path d="M 251.178342 50019.890099 
L 263.47357 50019.890099 
L 263.47357 151.220782 
L 251.178342 151.220782 
z
" clip-path="url(#pf86d0b67f2)" style="fill: #d55e00; stroke: #6b2d00; stroke-width: 0.45; stroke-linejoin: miter"/>
   </g>
   <g id="patch_17">
    <path d="M 268.255048 50019.890099 
L 280.550276 50019.890099 
L 280.550276 171.051659 
L 268.255048 171.051659 
z
" clip-path="url(#pf86d0b67f2)" style="fill: #d55e00; stroke: #6b2d00; stroke-width: 0.45; stroke-linejoin: miter"/>
   </g>
   <g id="patch_18">
    <path d="M 285.331754 50019.890099 
L 297.626982 50019.890099 
L 297.626982 186.053139 
L 285.331754 186.053139 
z
" clip-path="url(#pf86d0b67f2)" style="fill: #d55e00; stroke: #6b2d00; stroke-width: 0.45; stroke-linejoin: miter"/>
   </g>
   <g id="patch_19">
    <path d="M 302.408459 50019.890099 
L 314.703688 50019.890099 
L 314.703688 186.053139 
L 302.408459 186.053139 
z
" clip-path="url(#pf86d0b67f2)" style="fill: #d55e00; stroke: #6b2d00; stroke-width: 0.45; stroke-linejoin: miter"/>
   </g>
   <g id="patch_20">
    <path d="M 319.485165 50019.890099 
L 331.780394 50019.890099 
L 331.780394 171.051659 
L 319.485165 171.051659 
z
" clip-path="url(#pf86d0b67f2)" style="fill: #d55e00; stroke: #6b2d00; stroke-width: 0.45; stroke-linejoin: miter"/>
   </g>
   <g id="patch_21">
    <path d="M 336.561871 50019.890099 
L 348.857099 50019.890099 
L 348.857099 186.053139 
L 336.561871 186.053139 
z
" clip-path="url(#pf86d0b67f2)" style="fill: #d55e00; stroke: #6b2d00; stroke-width: 0.45; stroke-linejoin: miter"/>
   </g>
   <g id="patch_22">
    <path d="M 353.638577 50019.890099 
L 365.933805 50019.890099 
L 365.933805 162.276356 
L 353.638577 162.276356 
z
" clip-path="url(#pf86d0b67f2)" style="fill: #d55e00; stroke: #6b2d00; stroke-width: 0.45; stroke-linejoin: miter"/>
   </g>
   <g id="patch_23">
    <path d="M 370.715283 50019.890099 
L 383.010511 50019.890099 
L 383.010511 186.053139 
L 370.715283 186.053139 
z
" clip-path="url(#pf86d0b67f2)" style="fill: #d55e00; stroke: #6b2d00; stroke-width: 0.45; stroke-linejoin: miter"/>
   </g>
   <g id="patch_24">
    <path d="M 387.791989 50019.890099 
L 400.087217 50019.890099 
L 400.087217 162.276356 
L 387.791989 162.276356 
z
" clip-path="url(#pf86d0b67f2)" style="fill: #d55e00; stroke: #6b2d00; stroke-width: 0.45; stroke-linejoin: miter"/>
   </g>
   <g id="patch_25">
    <path d="M 404.868695 50019.890099 
L 417.163923 50019.890099 
L 417.163923 186.053139 
L 404.868695 186.053139 
z
" clip-path="url(#pf86d0b67f2)" style="fill: #d55e00; stroke: #6b2d00; stroke-width: 0.45; stroke-linejoin: miter"/>
   </g>
   <g id="patch_26">
    <path d="M 421.945401 50019.890099 
L 434.240629 50019.890099 
L 434.240629 186.053139 
L 421.945401 186.053139 
z
" clip-path="url(#pf86d0b67f2)" style="fill: #d55e00; stroke: #6b2d00; stroke-width: 0.45; stroke-linejoin: miter"/>
   </g>
   <g id="patch_27">
    <path d="M 439.022106 50019.890099 
L 451.317335 50019.890099 
L 451.317335 186.053139 
L 439.022106 186.053139 
z
" clip-path="url(#pf86d0b67f2)" style="fill: #d55e00; stroke: #6b2d00; stroke-width: 0.45; stroke-linejoin: miter"/>
   </g>
   <g id="patch_28">
    <path d="M 22.52125 194.198594 
L 22.52125 14.998594 
" style="fill: none; stroke: #d55e00; stroke-width: 0.7; stroke-linejoin: miter; stroke-linecap: square"/>
   </g>
   <g id="patch_29">
    <path d="M 457.97725 194.198594 
L 457.97725 14.998594 
" style="fill: none; stroke: #000000; stroke-width: 0.7; stroke-linejoin: miter; stroke-linecap: square"/>
   </g>
   <g id="patch_30">
    <path d="M 22.52125 194.198594 
L 457.97725 194.198594 
" style="fill: none; stroke: #000000; stroke-width: 0.7; stroke-linejoin: miter; stroke-linecap: square"/>
   </g>
   <g id="text_31">
    <text style="fill: #2b2b2b; font: 6.8px 'DejaVu Sans'; text-anchor: middle" x="35.328779" y="21.729861" transform="rotate(-0 35.328779 21.729861)">1.9k</text>
   </g>
   <g id="text_32">
    <text style="fill: #2b2b2b; font: 6.8px 'DejaVu Sans'; text-anchor: middle" x="52.405485" y="58.422083" transform="rotate(-0 52.405485 58.422083)">341</text>
   </g>
   <g id="text_33">
    <text style="fill: #2b2b2b; font: 6.8px 'DejaVu Sans'; text-anchor: middle" x="69.482191" y="76.929691" transform="rotate(-0 69.482191 76.929691)">145</text>
   </g>
   <g id="text_34">
    <text style="fill: #2b2b2b; font: 6.8px 'DejaVu Sans'; text-anchor: middle" x="445.169721" y="184.638952" transform="rotate(-0 445.169721 184.638952)">1</text>
   </g>
   <g id="text_35">
    <text style="font: 700 9px 'DejaVu Sans'; text-anchor: start" x="22.52125" y="8.998594" transform="rotate(-0 22.52125 8.998594)">N-to-1 collision profile</text>
   </g>
   <g id="legend_1">
    <g id="patch_31">
     <path d="M 329.451781 26.6175 
L 343.451781 26.6175 
L 343.451781 21.7175 
L 329.451781 21.7175 
z
" style="fill: #d55e00; stroke: #6b2d00; stroke-linejoin: miter"/>
    </g>
    <g id="text_36">
     <text style="font: 7px 'DejaVu Sans'; text-anchor: start" x="349.051781" y="26.6175" transform="rotate(-0 349.051781 26.6175)">C tokens (left y-axis)</text>
    </g>
    <g id="line2d_62">
     <path d="M 329.451781 34.442187 
L 336.451781 34.442187 
L 343.451781 34.442187 
" style="fill: none; stroke: #0072b2; stroke-width: 1.4; stroke-linecap: square"/>
     <defs>
      <path id="m6156948d16" d="M 0 1.6 
C 0.424325 1.6 0.831328 1.431414 1.131371 1.131371 
C 1.431414 0.831328 1.6 0.424325 1.6 0 
C 1.6 -0.424325 1.431414 -0.831328 1.131371 -1.131371 
C 0.831328 -1.431414 0.424325 -1.6 0 -1.6 
C -0.424325 -1.6 -0.831328 -1.431414 -1.131371 -1.131371 
C -1.431414 -0.831328 -1.6 -0.424325 -1.6 0 
C -1.6 0.424325 -1.431414 0.831328 -1.131371 1.131371 
C -0.831328 1.431414 -0.424325 1.6 0 1.6 
z
" style="stroke: #0072b2"/>
     </defs>
     <g>
      <use xlink:href="#m6156948d16" x="336.451781" y="34.442187" style="fill: #0072b2; stroke: #0072b2"/>
     </g>
    </g>
    <g id="text_37">
     <text style="font: 7px 'DejaVu Sans'; text-anchor: start" x="349.051781" y="36.892187" transform="rotate(-0 349.051781 36.892187)">A source tokens (right y-axis)</text>
    </g>
   </g>
  </g>
  <g id="axes_2">
   <g id="text_38">
    <text style="fill: #333333; font: 700 7.2px 'DejaVu Sans'; text-anchor: start" x="22.52125" y="222.069469" transform="rotate(-0 22.52125 222.069469)">C tokens for rare groups (C-token count &lt;= 3)</text>
   </g>
   <g id="text_39">
    <g id="patch_32">
     <path d="M 22.52125 241.680375 
L 75.611031 241.680375 
Q 76.667031 241.680375 76.667031 240.624375 
L 76.667031 234.236812 
Q 76.667031 233.180812 75.611031 233.180812 
L 22.52125 233.180812 
Q 21.46525 233.180812 21.46525 234.236812 
L 21.46525 240.624375 
Q 21.46525 241.680375 22.52125 241.680375 
z
" style="fill: #ffffff; opacity: 0.96; stroke: #d8a06a; stroke-width: 0.45; stroke-linejoin: miter"/>
    </g>
    <text style="fill: #4a2500; font: 6.6px 'DejaVu Sans'; text-anchor: start" x="22.52125" y="239.251781" transform="rotate(-0 22.52125 239.251781)">N=17: ju4, wei4</text>
   </g>
   <g id="text_40">
    <g id="patch_33">
     <path d="M 137.91709 241.680375 
L 177.198434 241.680375 
Q 178.254434 241.680375 178.254434 240.624375 
L 178.254434 234.236812 
Q 178.254434 233.180812 177.198434 233.180812 
L 137.91709 233.180812 
Q 136.86109 233.180812 136.86109 234.236812 
L 136.86109 240.624375 
Q 136.86109 241.680375 137.91709 241.680375 
z
" style="fill: #ffffff; opacity: 0.96; stroke: #d8a06a; stroke-width: 0.45; stroke-linejoin: miter"/>
    </g>
    <text style="fill: #4a2500; font: 6.6px 'DejaVu Sans'; text-anchor: start" x="137.91709" y="239.251781" transform="rotate(-0 137.91709 239.251781)">N=18: jian4</text>
   </g>
   <g id="text_41">
    <g id="patch_34">
     <path d="M 253.31293 241.680375 
L 287.205993 241.680375 
Q 288.261993 241.680375 288.261993 240.624375 
L 288.261993 234.236812 
Q 288.261993 233.180812 287.205993 233.180812 
L 253.31293 233.180812 
Q 252.25693 233.180812 252.25693 234.236812 
L 252.25693 240.624375 
Q 252.25693 241.680375 253.31293 241.680375 
z
" style="fill: #ffffff; opacity: 0.96; stroke: #d8a06a; stroke-width: 0.45; stroke-linejoin: miter"/>
    </g>
    <text style="fill: #4a2500; font: 6.6px 'DejaVu Sans'; text-anchor: start" x="253.31293" y="239.251781" transform="rotate(-0 253.31293 239.251781)">N=19: fu2</text>
   </g>
   <g id="text_42">
    <g id="patch_35">
     <path d="M 368.70877 241.680375 
L 417.019739 241.680375 
Q 418.075739 241.680375 418.075739 240.624375 
L 418.075739 234.236812 
Q 418.075739 233.180812 417.019739 233.180812 
L 368.70877 233.180812 
Q 367.65277 233.180812 367.65277 234.236812 
L 367.65277 240.624375 
Q 367.65277 241.680375 368.70877 241.680375 
z
" style="fill: #ffffff; opacity: 0.96; stroke: #d8a06a; stroke-width: 0.45; stroke-linejoin: miter"/>
    </g>
    <text style="fill: #4a2500; font: 6.6px 'DejaVu Sans'; text-anchor: start" x="368.70877" y="239.251781" transform="rotate(-0 368.70877 239.251781)">N=20: bi4, fu4</text>
   </g>
   <g id="text_43">
    <g id="patch_36">
     <path d="M 22.52125 259.152375 
L 57.997281 259.152375 
Q 59.053281 259.152375 59.053281 258.096375 
L 59.053281 251.708812 
Q 59.053281 250.652812 57.997281 250.652812 
L 22.52125 250.652812 
Q 21.46525 250.652812 21.46525 251.708812 
L 21.46525 258.096375 
Q 21.46525 259.152375 22.52125 259.152375 
z
" style="fill: #ffffff; opacity: 0.96; stroke: #d8a06a; stroke-width: 0.45; stroke-linejoin: miter"/>
    </g>
    <text style="fill: #4a2500; font: 6.6px 'DejaVu Sans'; text-anchor: start" x="22.52125" y="256.723781" transform="rotate(-0 22.52125 256.723781)">N=21: yu2</text>
   </g>
   <g id="text_44">
    <g id="patch_37">
     <path d="M 137.91709 259.152375 
L 198.907278 259.152375 
Q 199.963278 259.152375 199.963278 258.096375 
L 199.963278 251.708812 
Q 199.963278 250.652812 198.907278 250.652812 
L 137.91709 250.652812 
Q 136.86109 250.652812 136.86109 251.708812 
L 136.86109 258.096375 
Q 136.86109 259.152375 137.91709 259.152375 
z
" style="fill: #ffffff; opacity: 0.96; stroke: #d8a06a; stroke-width: 0.45; stroke-linejoin: miter"/>
    </g>
    <text style="fill: #4a2500; font: 6.6px 'DejaVu Sans'; text-anchor: start" x="137.91709" y="256.723781" transform="rotate(-0 137.91709 256.723781)">N=22: ji1, ji2, zhi4</text>
   </g>
   <g id="text_45">
    <g id="patch_38">
     <path d="M 253.31293 259.152375 
L 286.723368 259.152375 
Q 287.779368 259.152375 287.779368 258.096375 
L 287.779368 251.708812 
Q 287.779368 250.652812 286.723368 250.652812 
L 253.31293 250.652812 
Q 252.25693 250.652812 252.25693 251.708812 
L 252.25693 258.096375 
Q 252.25693 259.152375 253.31293 259.152375 
z
" style="fill: #ffffff; opacity: 0.96; stroke: #d8a06a; stroke-width: 0.45; stroke-linejoin: miter"/>
    </g>
    <text style="fill: #4a2500; font: 6.6px 'DejaVu Sans'; text-anchor: start" x="253.31293" y="256.723781" transform="rotate(-0 253.31293 256.723781)">N=26: qi2</text>
   </g>
   <g id="text_46">
    <g id="patch_39">
     <path d="M 368.70877 259.152375 
L 434.095176 259.152375 
Q 435.151176 259.152375 435.151176 258.096375 
L 435.151176 251.708812 
Q 435.151176 250.652812 434.095176 250.652812 
L 368.70877 250.652812 
Q 367.65277 250.652812 367.65277 251.708812 
L 367.65277 258.096375 
Q 367.65277 259.152375 368.70877 259.152375 
z
" style="fill: #ffffff; opacity: 0.96; stroke: #d8a06a; stroke-width: 0.45; stroke-linejoin: miter"/>
    </g>
    <text style="fill: #4a2500; font: 6.6px 'DejaVu Sans'; text-anchor: start" x="368.70877" y="256.723781" transform="rotate(-0 368.70877 256.723781)">N=27: ji4, shi4, yu4</text>
   </g>
   <g id="text_47">
    <g id="patch_40">
     <path d="M 22.52125 276.624375 
L 53.575281 276.624375 
Q 54.631281 276.624375 54.631281 275.568375 
L 54.631281 269.180812 
Q 54.631281 268.124812 53.575281 268.124812 
L 22.52125 268.124812 
Q 21.46525 268.124812 21.46525 269.180812 
L 21.46525 275.568375 
Q 21.46525 276.624375 22.52125 276.624375 
z
" style="fill: #ffffff; opacity: 0.96; stroke: #d8a06a; stroke-width: 0.45; stroke-linejoin: miter"/>
    </g>
    <text style="fill: #4a2500; font: 6.6px 'DejaVu Sans'; text-anchor: start" x="22.52125" y="274.195781" transform="rotate(-0 22.52125 274.195781)">N=30: li4</text>
   </g>
   <g id="text_48">
    <g id="patch_41">
     <path d="M 137.91709 276.624375 
L 171.043934 276.624375 
Q 172.099934 276.624375 172.099934 275.568375 
L 172.099934 269.180812 
Q 172.099934 268.124812 171.043934 268.124812 
L 137.91709 268.124812 
Q 136.86109 268.124812 136.86109 269.180812 
L 136.86109 275.568375 
Q 136.86109 276.624375 137.91709 276.624375 
z
" style="fill: #ffffff; opacity: 0.96; stroke: #d8a06a; stroke-width: 0.45; stroke-linejoin: miter"/>
    </g>
    <text style="fill: #4a2500; font: 6.6px 'DejaVu Sans'; text-anchor: start" x="137.91709" y="274.195781" transform="rotate(-0 137.91709 274.195781)">N=32: xi1</text>
   </g>
   <g id="text_49">
    <g id="patch_42">
     <path d="M 253.31293 276.624375 
L 286.439774 276.624375 
Q 287.495774 276.624375 287.495774 275.568375 
L 287.495774 269.180812 
Q 287.495774 268.124812 286.439774 268.124812 
L 253.31293 268.124812 
Q 252.25693 268.124812 252.25693 269.180812 
L 252.25693 275.568375 
Q 252.25693 276.624375 253.31293 276.624375 
z
" style="fill: #ffffff; opacity: 0.96; stroke: #d8a06a; stroke-width: 0.45; stroke-linejoin: miter"/>
    </g>
    <text style="fill: #4a2500; font: 6.6px 'DejaVu Sans'; text-anchor: start" x="253.31293" y="274.195781" transform="rotate(-0 253.31293 274.195781)">N=41: yi4</text>
   </g>
  </g>
  <g id="axes_3">
   <g id="matplotlib.axis_3">
    <g id="ytick_33">
     <g id="line2d_63">
      <defs>
       <path id="mb37bcea53e" d="M 0 0 
L 3.5 0 
" style="stroke: #0072b2; stroke-width: 0.8"/>
      </defs>
      <g>
       <use xlink:href="#mb37bcea53e" x="457.97725" y="133.641392" style="fill: #0072b2; stroke: #0072b2; stroke-width: 0.8"/>
      </g>
     </g>
     <g id="text_50">
      <text style="fill: #0072b2; font: 7px 'DejaVu Sans'; text-anchor: start" x="464.97725" y="136.300846" transform="rotate(-0 464.97725 136.300846)">100</text>
     </g>
    </g>
    <g id="ytick_34">
     <g id="line2d_64">
      <g>
       <use xlink:href="#mb37bcea53e" x="457.97725" y="63.264312" style="fill: #0072b2; stroke: #0072b2; stroke-width: 0.8"/>
      </g>
     </g>
     <g id="text_51">
      <text style="fill: #0072b2; font: 7px 'DejaVu Sans'; text-anchor: start" x="464.97725" y="65.923765" transform="rotate(-0 464.97725 65.923765)">1k</text>
     </g>
    </g>
    <g id="ytick_35">
     <g id="line2d_65">
      <defs>
       <path id="mf1e781e5a8" d="M 0 0 
L 2 0 
" style="stroke: #000000; stroke-width: 0.6"/>
      </defs>
      <g>
       <use xlink:href="#mf1e781e5a8" x="457.97725" y="182.832861" style="stroke: #000000; stroke-width: 0.6"/>
      </g>
     </g>
    </g>
    <g id="ytick_36">
     <g id="line2d_66">
      <g>
       <use xlink:href="#mf1e781e5a8" x="457.97725" y="170.440072" style="stroke: #000000; stroke-width: 0.6"/>
      </g>
     </g>
    </g>
    <g id="ytick_37">
     <g id="line2d_67">
      <g>
       <use xlink:href="#mf1e781e5a8" x="457.97725" y="161.647248" style="stroke: #000000; stroke-width: 0.6"/>
      </g>
     </g>
    </g>
    <g id="ytick_38">
     <g id="line2d_68">
      <g>
       <use xlink:href="#mf1e781e5a8" x="457.97725" y="154.827005" style="stroke: #000000; stroke-width: 0.6"/>
      </g>
     </g>
    </g>
    <g id="ytick_39">
     <g id="line2d_69">
      <g>
       <use xlink:href="#mf1e781e5a8" x="457.97725" y="149.25446" style="stroke: #000000; stroke-width: 0.6"/>
      </g>
     </g>
    </g>
    <g id="ytick_40">
     <g id="line2d_70">
      <g>
       <use xlink:href="#mf1e781e5a8" x="457.97725" y="144.54294" style="stroke: #000000; stroke-width: 0.6"/>
      </g>
     </g>
    </g>
    <g id="ytick_41">
     <g id="line2d_71">
      <g>
       <use xlink:href="#mf1e781e5a8" x="457.97725" y="140.461636" style="stroke: #000000; stroke-width: 0.6"/>
      </g>
     </g>
    </g>
    <g id="ytick_42">
     <g id="line2d_72">
      <g>
       <use xlink:href="#mf1e781e5a8" x="457.97725" y="136.861671" style="stroke: #000000; stroke-width: 0.6"/>
      </g>
     </g>
    </g>
    <g id="ytick_43">
     <g id="line2d_73">
      <g>
       <use xlink:href="#mf1e781e5a8" x="457.97725" y="112.45578" style="stroke: #000000; stroke-width: 0.6"/>
      </g>
     </g>
    </g>
    <g id="ytick_44">
     <g id="line2d_74">
      <g>
       <use xlink:href="#mf1e781e5a8" x="457.97725" y="100.062992" style="stroke: #000000; stroke-width: 0.6"/>
      </g>
     </g>
    </g>
    <g id="ytick_45">
     <g id="line2d_75">
      <g>
       <use xlink:href="#mf1e781e5a8" x="457.97725" y="91.270168" style="stroke: #000000; stroke-width: 0.6"/>
      </g>
     </g>
    </g>
    <g id="ytick_46">
     <g id="line2d_76">
      <g>
       <use xlink:href="#mf1e781e5a8" x="457.97725" y="84.449924" style="stroke: #000000; stroke-width: 0.6"/>
      </g>
     </g>
    </g>
    <g id="ytick_47">
     <g id="line2d_77">
      <g>
       <use xlink:href="#mf1e781e5a8" x="457.97725" y="78.877379" style="stroke: #000000; stroke-width: 0.6"/>
      </g>
     </g>
    </g>
    <g id="ytick_48">
     <g id="line2d_78">
      <g>
       <use xlink:href="#mf1e781e5a8" x="457.97725" y="74.16586" style="stroke: #000000; stroke-width: 0.6"/>
      </g>
     </g>
    </g>
    <g id="ytick_49">
     <g id="line2d_79">
      <g>
       <use xlink:href="#mf1e781e5a8" x="457.97725" y="70.084556" style="stroke: #000000; stroke-width: 0.6"/>
      </g>
     </g>
    </g>
    <g id="ytick_50">
     <g id="line2d_80">
      <g>
       <use xlink:href="#mf1e781e5a8" x="457.97725" y="66.484591" style="stroke: #000000; stroke-width: 0.6"/>
      </g>
     </g>
    </g>
    <g id="ytick_51">
     <g id="line2d_81">
      <g>
       <use xlink:href="#mf1e781e5a8" x="457.97725" y="42.0787" style="stroke: #000000; stroke-width: 0.6"/>
      </g>
     </g>
    </g>
    <g id="ytick_52">
     <g id="line2d_82">
      <g>
       <use xlink:href="#mf1e781e5a8" x="457.97725" y="29.685911" style="stroke: #000000; stroke-width: 0.6"/>
      </g>
     </g>
    </g>
    <g id="ytick_53">
     <g id="line2d_83">
      <g>
       <use xlink:href="#mf1e781e5a8" x="457.97725" y="20.893088" style="stroke: #000000; stroke-width: 0.6"/>
      </g>
     </g>
    </g>
   </g>
   <g id="line2d_84">
    <path d="M 35.328779 23.144048 
L 52.405485 62.569294 
L 69.482191 79.913559 
L 86.558897 87.670203 
L 103.635603 92.517867 
L 120.712309 96.599171 
L 137.789015 94.490447 
L 154.865721 107.657058 
L 171.942426 115.676059 
L 189.019132 114.509974 
L 206.095838 125.155751 
L 223.172544 113.229603 
L 240.24925 138.970395 
L 257.325956 142.434216 
L 274.402662 166.614538 
L 291.479368 186.053139 
L 308.556074 184.400608 
L 325.632779 161.647248 
L 342.709485 181.34162 
L 359.786191 146.341363 
L 376.862897 174.81386 
L 393.939603 140.08195 
L 411.016309 170.440072 
L 428.093015 168.467492 
L 445.169721 160.892534 
" clip-path="url(#pf86d0b67f2)" style="fill: none; stroke: #0072b2; stroke-width: 1.4; stroke-linecap: square"/>
    <defs>
     <path id="m6977eb0d11" d="M 0 1.5 
C 0.397805 1.5 0.77937 1.341951 1.06066 1.06066 
C 1.341951 0.77937 1.5 0.397805 1.5 0 
C 1.5 -0.397805 1.341951 -0.77937 1.06066 -1.06066 
C 0.77937 -1.341951 0.397805 -1.5 0 -1.5 
C -0.397805 -1.5 -0.77937 -1.341951 -1.06066 -1.06066 
C -1.341951 -0.77937 -1.5 -0.397805 -1.5 0 
C -1.5 0.397805 -1.341951 0.77937 -1.06066 1.06066 
C -0.77937 1.341951 -0.397805 1.5 0 1.5 
z
" style="stroke: #0072b2; stroke-width: 0.8"/>
    </defs>
    <g clip-path="url(#pf86d0b67f2)">
     <use xlink:href="#m6977eb0d11" x="35.328779" y="23.144048" style="fill: #ffffff; stroke: #0072b2; stroke-width: 0.8"/>
     <use xlink:href="#m6977eb0d11" x="52.405485" y="62.569294" style="fill: #ffffff; stroke: #0072b2; stroke-width: 0.8"/>
     <use xlink:href="#m6977eb0d11" x="69.482191" y="79.913559" style="fill: #ffffff; stroke: #0072b2; stroke-width: 0.8"/>
     <use xlink:href="#m6977eb0d11" x="86.558897" y="87.670203" style="fill: #ffffff; stroke: #0072b2; stroke-width: 0.8"/>
     <use xlink:href="#m6977eb0d11" x="103.635603" y="92.517867" style="fill: #ffffff; stroke: #0072b2; stroke-width: 0.8"/>
     <use xlink:href="#m6977eb0d11" x="120.712309" y="96.599171" style="fill: #ffffff; stroke: #0072b2; stroke-width: 0.8"/>
     <use xlink:href="#m6977eb0d11" x="137.789015" y="94.490447" style="fill: #ffffff; stroke: #0072b2; stroke-width: 0.8"/>
     <use xlink:href="#m6977eb0d11" x="154.865721" y="107.657058" style="fill: #ffffff; stroke: #0072b2; stroke-width: 0.8"/>
     <use xlink:href="#m6977eb0d11" x="171.942426" y="115.676059" style="fill: #ffffff; stroke: #0072b2; stroke-width: 0.8"/>
     <use xlink:href="#m6977eb0d11" x="189.019132" y="114.509974" style="fill: #ffffff; stroke: #0072b2; stroke-width: 0.8"/>
     <use xlink:href="#m6977eb0d11" x="206.095838" y="125.155751" style="fill: #ffffff; stroke: #0072b2; stroke-width: 0.8"/>
     <use xlink:href="#m6977eb0d11" x="223.172544" y="113.229603" style="fill: #ffffff; stroke: #0072b2; stroke-width: 0.8"/>
     <use xlink:href="#m6977eb0d11" x="240.24925" y="138.970395" style="fill: #ffffff; stroke: #0072b2; stroke-width: 0.8"/>
     <use xlink:href="#m6977eb0d11" x="257.325956" y="142.434216" style="fill: #ffffff; stroke: #0072b2; stroke-width: 0.8"/>
     <use xlink:href="#m6977eb0d11" x="274.402662" y="166.614538" style="fill: #ffffff; stroke: #0072b2; stroke-width: 0.8"/>
     <use xlink:href="#m6977eb0d11" x="291.479368" y="186.053139" style="fill: #ffffff; stroke: #0072b2; stroke-width: 0.8"/>
     <use xlink:href="#m6977eb0d11" x="308.556074" y="184.400608" style="fill: #ffffff; stroke: #0072b2; stroke-width: 0.8"/>
     <use xlink:href="#m6977eb0d11" x="325.632779" y="161.647248" style="fill: #ffffff; stroke: #0072b2; stroke-width: 0.8"/>
     <use xlink:href="#m6977eb0d11" x="342.709485" y="181.34162" style="fill: #ffffff; stroke: #0072b2; stroke-width: 0.8"/>
     <use xlink:href="#m6977eb0d11" x="359.786191" y="146.341363" style="fill: #ffffff; stroke: #0072b2; stroke-width: 0.8"/>
     <use xlink:href="#m6977eb0d11" x="376.862897" y="174.81386" style="fill: #ffffff; stroke: #0072b2; stroke-width: 0.8"/>
     <use xlink:href="#m6977eb0d11" x="393.939603" y="140.08195" style="fill: #ffffff; stroke: #0072b2; stroke-width: 0.8"/>
     <use xlink:href="#m6977eb0d11" x="411.016309" y="170.440072" style="fill: #ffffff; stroke: #0072b2; stroke-width: 0.8"/>
     <use xlink:href="#m6977eb0d11" x="428.093015" y="168.467492" style="fill: #ffffff; stroke: #0072b2; stroke-width: 0.8"/>
     <use xlink:href="#m6977eb0d11" x="445.169721" y="160.892534" style="fill: #ffffff; stroke: #0072b2; stroke-width: 0.8"/>
    </g>
   </g>
   <g id="patch_43">
    <path d="M 22.52125 194.198594 
L 22.52125 14.998594 
" style="fill: none; stroke: #000000; stroke-width: 0.7; stroke-linejoin: miter; stroke-linecap: square"/>
   </g>
   <g id="patch_44">
    <path d="M 457.97725 194.198594 
L 457.97725 14.998594 
" style="fill: none; stroke: #0072b2; stroke-width: 0.7; stroke-linejoin: miter; stroke-linecap: square"/>
   </g>
   <g id="patch_45">
    <path d="M 22.52125 194.198594 
L 457.97725 194.198594 
" style="fill: none; stroke: #000000; stroke-width: 0.7; stroke-linejoin: miter; stroke-linecap: square"/>
   </g>
  </g>
 </g>
 <defs>
  <clipPath id="pf86d0b67f2">
   <rect x="22.52125" y="14.998594" width="435.456" height="179.2"/>
  </clipPath>
 </defs>
</svg>
